# xmcd CD database file
#
# Track frame offsets:
#	150
#	23169
#	41371
#	62166
#	84468
#	103245
#	124662
#	147044
#
# Disc length: 2246 seconds
#
# Revision: 2
# Processed by: cddbd v1.5.1PL0 Copyright (c) Steve Scherf et al.
# Submitted via: CDex 1.51
#
DISCID=6408c408
DTITLE=藤崎詩織(金月真美) - My Sweet Valentine
DYEAR=1997
DGENRE=Game
TTITLE0=My Sweet Valentine
TTITLE1=教えてMr.Sky
TTITLE2=シグナル
TTITLE3=夢をあきらめないで
TTITLE4=風と一緒に行こう
TTITLE5=卒業アルバム
TTITLE6=夢をあきらめないで -Karaoke-
TTITLE7=卒業アルバム -Karaoke-
EXTD=YEAR: 1997
EXTT0=
EXTT1=
EXTT2=
EXTT3=
EXTT4=
EXTT5=
EXTT6=
EXTT7=
PLAYORDER=
